<?xml version="1.0" encoding="utf-8"?>
<!-- Generator: Adobe Illustrator 15.0.0, SVG Export Plug-In . SVG Version: 6.00 Build 0)  -->
<!DOCTYPE svg PUBLIC "-//W3C//DTD SVG 1.1//EN" "http://www.w3.org/Graphics/SVG/1.1/DTD/svg11.dtd">
<svg version="1.1" id="Layer_1" xmlns="http://www.w3.org/2000/svg" xmlns:xlink="http://www.w3.org/1999/xlink" x="0px" y="0px"
	 width="595.28px" height="841.89px" viewBox="0 0 595.28 841.89" enable-background="new 0 0 595.28 841.89" xml:space="preserve">
<text transform="matrix(1 0 0 1 185.6396 219.9995)" font-family="'MyriadPro-BoldIt'" font-size="21">Cycling Trips</text>
<text transform="matrix(1 0 0 1 267.6406 232.3335)" font-family="'MyriadPro-It'" font-size="8">explore your country</text>
<g>
	<path fill="#020304" d="M328.024,210.677c-0.745,0-1.451,0.157-2.094,0.437l-0.272-0.894l0.07-0.022
		c0.019-0.006,0.028-0.026,0.023-0.044l-0.018-0.054c-0.006-0.018-0.026-0.028-0.044-0.022l-0.068,0.022l-0.277-0.903
		c-0.122-0.402-0.246-0.804-0.371-1.206l0.045-0.015c0.019-0.006,0.028-0.026,0.023-0.043l-0.018-0.055
		c-0.006-0.018-0.025-0.028-0.043-0.022l-0.045,0.014l-0.02,0.006l-0.199-0.563h1.473c0.035,0,0.078,0.001,0.125,0.005l0.016-0.21
		l-0.015,0.21c0.308,0.022,1.312,0.165,1.312,1.062c0,0.908-0.949,1.069-0.989,1.075l0.063,0.416
		c0.465-0.07,1.346-0.473,1.346-1.491c0-1.001-0.879-1.421-1.701-1.481l0,0c-0.06-0.004-0.112-0.006-0.156-0.006h-1.612v0.027
		l-0.006-0.018l-0.462,0.146l0.345,0.976l-0.04,0.013c-0.019,0.006-0.028,0.026-0.022,0.043l0.017,0.054
		c0.007,0.018,0.026,0.028,0.044,0.023l0.044-0.014c0.02,0.059,0.038,0.116,0.058,0.174h-8.487l-0.07-0.238l-0.046-0.159
		l-0.024,0.007l-0.444-1.539c-0.012-0.047-0.04-0.143-0.271-0.25l0.051-0.002c0.089-0.004,0.209-0.055,0.275-0.114l0.316-0.286
		c0.094,0.002,0.164,0.007,0.182,0.017c0.062,0.035,0.437,0.043,0.575,0.043c0.141,0,0.358,0.009,0.394,0.009
		c0.034,0,0.139-0.087-0.026-0.192c-0.166-0.104-0.41-0.314-1.134-0.314s-2.042,0-2.146,0c-0.105,0-0.25-0.018-0.366-0.052
		c-0.137-0.041-0.629-0.069-0.707-0.035c-0.079,0.035-0.064,0.119,0.07,0.245c0.09,0.083,0.248,0.234,0.337,0.278
		c0.069,0.035,0.313,0.133,0.577,0.197l0.14,0.154c0.06,0.065,0.172,0.114,0.262,0.114c0.005,0,0.009,0,0.013,0l0.438-0.022
		c-0.003,0.021-0.005,0.042-0.005,0.063c0,0.185,0.096,0.341,0.354,0.347c0.086,0.001,0.216-0.025,0.31-0.067
		c0.001,0,0.002,0.001,0.004,0.002l0.436,1.511l-0.043,0.013l0.046,0.159l0.154,0.523c-0.002,0.004-0.004,0.007-0.006,0.01
		l-0.125,0.227l-0.251,0.452l-0.499,0.906l-0.506,0.903c-0.01,0.018-0.021,0.037-0.031,0.055c-0.73-0.386-1.562-0.606-2.445-0.606
		c-2.897,0-5.246,2.349-5.246,5.246c0,2.898,2.349,5.246,5.246,5.246c2.131,0,3.961-1.272,4.782-3.096l1.169,0.143
		c0.179,0.07,0.372,0.112,0.575,0.112c0.864,0,1.564-0.7,1.564-1.564c0-0.345-0.115-0.66-0.304-0.918l5.456-5.903l0.099,0.294
		l-0.069,0.021c-0.019,0.006-0.028,0.026-0.022,0.044l0.018,0.054c0.005,0.018,0.025,0.028,0.044,0.022l0.07-0.022l0.315,0.942
		c-1.649,0.884-2.771,2.623-2.771,4.625c0,2.898,2.349,5.246,5.246,5.246s5.246-2.348,5.246-5.246
		C333.271,213.025,330.922,210.677,328.024,210.677z M314.985,206.045c-0.053-0.088-0.14-0.146-0.238-0.146
		c-0.108,0-0.202,0.069-0.252,0.172l-0.479,0.025c-0.061,0.003-0.15-0.034-0.191-0.08l-0.044-0.048
		c0.086,0.014,0.17,0.022,0.248,0.021c0.381-0.006,0.532-0.192,0.671-0.218c0.14-0.026,0.41-0.026,0.41-0.026
		c0.1,0,0.366-0.009,0.588-0.009l-0.231,0.208c-0.048,0.044-0.146,0.084-0.211,0.087L314.985,206.045z M314.566,211.36l0.498-0.907
		l0.503-0.904l0.251-0.452l0.004-0.007l1.841,6.247l-0.594,0.034c-0.176-1.683-1.15-3.125-2.535-3.951
		C314.544,211.399,314.556,211.38,314.566,211.36z M317.368,217.608c0,0-0.167-0.173-0.253-0.436
		c-0.021-0.064-0.033-0.126-0.043-0.184l0.696,0.11l0.115,0.018c-0.004,0.011-0.004,0.022-0.009,0.033l-0.192,0.407
		C317.617,217.696,317.476,217.719,317.368,217.608z M312.322,215.568l0.77-1.476l0.487-0.914l0.492-0.911
		c0.061-0.113,0.122-0.225,0.184-0.337c1.214,0.732,2.067,1.997,2.23,3.474l-4.111,0.239
		C312.36,215.615,312.345,215.587,312.322,215.568z M316.495,215.51c0.012,0.136,0.021,0.273,0.021,0.413
		c0,0.149-0.009,0.295-0.022,0.441l-4.083-0.615c0,0,0,0,0,0L316.495,215.51z M317.857,216.404l-0.447-0.058
		c-0.152-0.02-0.219-0.147-0.146-0.284c0,0,0.113-0.212,0.337-0.375c0.047-0.034,0.094-0.061,0.14-0.084l0.233,0.791
		C317.937,216.405,317.897,216.409,317.857,216.404z M318.267,215.785l-0.084-0.288c0.077,0.031,0.12,0.108,0.1,0.212
		L318.267,215.785z M318.379,216.551c0.139,0,0.251,0.113,0.251,0.251c0,0.138-0.112,0.251-0.251,0.251s-0.252-0.113-0.252-0.251
		C318.127,216.664,318.24,216.551,318.379,216.551z M317.097,215.873c-0.002-0.133-0.01-0.266-0.021-0.396l0.462-0.027
		C317.364,215.561,317.214,215.705,317.097,215.873z M318.584,216.215c-0.009-0.019-0.02-0.038-0.023-0.06l-0.084-0.443
		c-0.027-0.151,0.073-0.253,0.226-0.227c0,0,0.197,0.04,0.4,0.168L318.584,216.215z M311.853,220.586
		c-2.575,0-4.663-2.087-4.663-4.664c0-2.575,2.088-4.664,4.663-4.664c0.78,0,1.514,0.194,2.159,0.532
		c-0.063,0.113-0.126,0.226-0.19,0.339l-0.512,0.899l-0.517,0.896c-0.273,0.47-0.546,0.939-0.824,1.407l-0.083,0
		c-0.01-0.001-0.02-0.001-0.028-0.001c-0.318,0-0.576,0.258-0.576,0.576c0,0.284,0.205,0.519,0.476,0.567l0.221-0.004
		c0.146-0.03,0.27-0.116,0.352-0.233l4.087,0.647c-0.075,0.355-0.193,0.693-0.343,1.013l-4.264-0.522
		c0.032-0.045,0.055-0.098,0.055-0.157c0-0.154-0.124-0.279-0.278-0.279c-0.153,0-0.278,0.125-0.278,0.279
		c0,0.153,0.125,0.278,0.278,0.278c0.043,0,0.082-0.011,0.118-0.028l4.321,0.529C315.261,219.531,313.682,220.586,311.853,220.586z
		 M316.683,217.973c0.094-0.22,0.167-0.45,0.23-0.684c0.116,0.326,0.334,0.603,0.621,0.787L316.683,217.973z M318.869,217.986
		c0,0-0.216,0.105-0.492,0.105s-0.492-0.105-0.492-0.105c-0.139-0.067-0.159-0.208-0.046-0.313l0.342-0.314
		c0.009-0.008,0.021-0.012,0.03-0.019c0.052,0.016,0.106,0.026,0.163,0.026c0.061,0,0.115-0.017,0.17-0.034
		c0.016,0.01,0.032,0.017,0.046,0.029l0.327,0.309C319.03,217.777,319.008,217.918,318.869,217.986z M319.693,216.675
		c0,0,0.033,0.239-0.052,0.501c-0.086,0.262-0.253,0.436-0.253,0.436c-0.106,0.111-0.247,0.087-0.312-0.053l-0.192-0.422
		c-0.011-0.023-0.014-0.048-0.018-0.072c0.042-0.077,0.07-0.161,0.072-0.255c0.021-0.024,0.044-0.046,0.073-0.062l0.396-0.216
		C319.544,216.458,319.673,216.523,319.693,216.675z M319.498,216.066c0.073,0.136,0.007,0.261-0.146,0.279l-0.196,0.023
		l0.318-0.343C319.489,216.05,319.498,216.066,319.498,216.066z M319.267,215.478c-0.253-0.174-0.558-0.278-0.887-0.278
		c-0.095,0-0.187,0.012-0.276,0.028l-1.881-6.388h8.507c0.056,0.167,0.11,0.333,0.166,0.5l0.012,0.035L319.267,215.478z
		 M328.024,220.586c-2.576,0-4.664-2.087-4.664-4.664c0-1.744,0.959-3.262,2.377-4.062l0.287,0.854l0.189,0.562l0.047,0.141
		l0.014,0.04l0.012,0.035l0.028,0.073c0.038,0.095,0.078,0.188,0.12,0.281c0.171,0.369,0.372,0.719,0.601,1.052
		c0.113,0.166,0.233,0.329,0.363,0.484c0.064,0.078,0.132,0.154,0.205,0.227c0.07,0.074,0.147,0.145,0.232,0.21
		c0.046,0.042,0.116,0.038,0.157-0.007c0.042-0.045,0.038-0.116-0.007-0.157c-0.005-0.003-0.01-0.002-0.015-0.005l0.001-0.001
		c-0.136-0.121-0.259-0.272-0.373-0.425c-0.114-0.155-0.223-0.316-0.323-0.482c-0.202-0.332-0.385-0.676-0.532-1.03
		c-0.037-0.088-0.072-0.179-0.104-0.269l-0.022-0.066l-0.013-0.035l-0.009-0.03l-0.043-0.143l-0.173-0.567l-0.28-0.922
		c0.587-0.266,1.237-0.417,1.922-0.417c2.577,0,4.664,2.088,4.664,4.664C332.688,218.499,330.601,220.586,328.024,220.586z"/>
	<circle fill="#020304" cx="312.083" cy="216.766" r="0.279"/>
</g>
</svg>
